#!Matlab matrix to amc conversion
:FULLY-SPECIFIED
:DEGREES
16
root 9.192140 16.357400 -29.724600 1.637882 1.634016 -0.203845
lowerback 11.841762 0.764252 5.596908
upperback -0.742875 2.049475 3.130626
thorax -7.472433 0.850231 -0.024326
lowerneck -11.298561 -0.890552 -2.222780
upperneck 28.403104 -0.640734 -0.500743
head 11.219997 -0.578844 0.105067
rclavicle -0.000000 0.000000
rhumerus -29.566806 -4.909978 -78.648943
rradius 35.407270
rwrist -3.242323
rhand -13.646316 10.161104
rfingers 7.125020
rthumb 12.467726 -19.435121
lclavicle -0.000000 0.000000
lhumerus -43.278323 7.934614 83.059004
lradius 37.587880
lwrist 4.204896
lhand -11.652503 47.179488
lfingers 7.125020
lthumb 14.375311 76.565091
rfemur 13.097084 6.439238 33.531820
rtibia 17.465606
rfoot -12.583476 -7.213478
rtoes 3.144848
lfemur -25.751195 -7.193591 -13.034885
ltibia 24.890157
lfoot -10.996594 11.670725
ltoes -15.642013
17
root 9.191770 16.245600 -29.440800 1.589405 1.634016 -0.211923
lowerback 11.462274 0.938109 5.491614
upperback -0.814410 2.190491 2.982648
thorax -7.339513 0.926213 -0.134941
lowerneck -11.320335 -0.914489 -2.215224
upperneck 28.600312 -0.687328 -0.455555
head 11.300586 -0.594434 0.116286
rclavicle -0.000000 0.000000
rhumerus -29.563321 -5.123610 -78.541765
rradius 35.235311
rwrist -2.996490
rhand -13.621746 10.196175
rfingers 7.125020
rthumb 12.491349 -19.398510
lclavicle -0.000000 0.000000
lhumerus -43.582065 8.260641 82.884036
lradius 37.100836
lwrist 4.055442
lhand -11.812835 46.937416
lfingers 7.125020
lthumb 14.217794 76.339103
rfemur 14.668972 6.499406 33.084260
rtibia 17.834560
rfoot -11.933195 -6.719808
rtoes 0.955403
lfemur -25.277668 -7.261275 -13.492979
ltibia 24.503893
lfoot -10.369933 11.469188
ltoes -14.831651
18
root 9.208550 16.156600 -29.151500 1.517402 1.634016 -0.223779
lowerback 11.068698 1.133618 5.286748
upperback -0.884993 2.360784 2.815898
thorax -7.194564 1.018071 -0.257145
lowerneck -11.348874 -0.937766 -2.204915
upperneck 28.801720 -0.733308 -0.407249
head 11.383784 -0.609456 0.127897
rclavicle -0.000000 0.000000
rhumerus -29.582992 -5.369748 -78.424410
rradius 35.000173
rwrist -2.733709
rhand -13.595062 10.253936
rfingers 7.125020
rthumb 12.516987 -19.336891
lclavicle -0.000000 0.000000
lhumerus -43.916107 8.615341 82.685826
lradius 36.558431
lwrist 3.869543
lhand -11.974966 46.674713
lfingers 7.125020
lthumb 14.058281 76.092325
rfemur 16.272918 6.566313 32.493129
rtibia 18.862872
rfoot -11.025561 -6.212126
rtoes -1.575316
lfemur -24.728455 -6.976160 -14.297900
ltibia 24.474953
lfoot -9.353254 10.956017
ltoes -13.245605
19
root 9.222000 16.080900 -28.855000 1.159521 1.634016 0.076143
lowerback 11.220793 1.198162 3.602999
upperback -0.973725 2.256748 2.335560
thorax -7.375942 1.009757 0.029465
lowerneck -11.186854 -1.002720 -2.352245
upperneck 29.340328 -0.849796 -0.222041
head 11.557016 -0.659480 0.202015
rclavicle -0.000000 0.000000
rhumerus -31.023753 -7.123881 -78.007193
rradius 33.287289
rwrist -1.658497
rhand -13.651356 10.659421
rfingers 7.125020
rthumb 12.460001 -18.914968
lclavicle -0.000000 0.000000
lhumerus -43.308436 8.716893 83.051802
lradius 36.145426
lwrist 4.103867
lhand -12.037597 46.541639
lfingers 7.125020
lthumb 14.006686 75.998747
rfemur 13.218399 5.657086 29.912284
rtibia 28.695556
rfoot -3.813671 -5.591757
rtoes -2.958587
lfemur -22.520564 -5.996519 -17.245360
ltibia 26.107680
lfoot -5.788554 8.972541
ltoes -7.898717
